<mxfile host="app.diagrams.net" agent="Mozilla/5.0 (Macintosh; Intel Mac OS X 10_15_7) AppleWebKit/605.1.15 (KHTML, like Gecko) Version/18.6 Safari/605.1.15" version="28.1.2">
  <diagram id="uJyi0oGNi_QSv5alpGKN" name="Page-1">
    <mxGraphModel dx="1627" dy="1103" grid="1" gridSize="10" guides="1" tooltips="1" connect="1" arrows="1" fold="1" page="1" pageScale="1" pageWidth="10000" pageHeight="10000" math="0" shadow="0">
      <root>
        <mxCell id="0" />
        <mxCell id="1" parent="0" />
        <mxCell id="X8t4k1onN2h0A209ZfBv-37" value="" style="edgeStyle=orthogonalEdgeStyle;rounded=0;orthogonalLoop=1;jettySize=auto;html=1;" edge="1" parent="1" source="BHZpziPjv8-AbtUYuXKN-39" target="BHZpziPjv8-AbtUYuXKN-47">
          <mxGeometry relative="1" as="geometry" />
        </mxCell>
        <mxCell id="X8t4k1onN2h0A209ZfBv-121" value="" style="edgeStyle=orthogonalEdgeStyle;rounded=0;orthogonalLoop=1;jettySize=auto;html=1;" edge="1" parent="1" source="BHZpziPjv8-AbtUYuXKN-39" target="X8t4k1onN2h0A209ZfBv-120">
          <mxGeometry relative="1" as="geometry" />
        </mxCell>
        <mxCell id="X8t4k1onN2h0A209ZfBv-125" value="" style="edgeStyle=orthogonalEdgeStyle;rounded=0;orthogonalLoop=1;jettySize=auto;html=1;" edge="1" parent="1" source="BHZpziPjv8-AbtUYuXKN-39" target="X8t4k1onN2h0A209ZfBv-126">
          <mxGeometry relative="1" as="geometry">
            <mxPoint x="5745" y="2415" as="targetPoint" />
          </mxGeometry>
        </mxCell>
        <mxCell id="BHZpziPjv8-AbtUYuXKN-39" value="&lt;font style=&quot;font-size: 18px;&quot;&gt;WEBSITE&lt;/font&gt;" style="shape=hexagon;perimeter=hexagonPerimeter2;whiteSpace=wrap;html=1;fixedSize=1;size=20;fillColor=#1ba1e2;fontColor=#ffffff;strokeColor=#006EAF;" parent="1" vertex="1">
          <mxGeometry x="5670" y="2492.5" width="150" height="55" as="geometry" />
        </mxCell>
        <mxCell id="BHZpziPjv8-AbtUYuXKN-55" value="&lt;font style=&quot;font-size: 14px;&quot;&gt;Phone number and OTP&lt;/font&gt;" style="whiteSpace=wrap;html=1;rounded=1;glass=0;strokeColor=default;align=left;verticalAlign=middle;spacingLeft=4;spacingRight=4;fontFamily=Helvetica;fontSize=12;fontColor=default;fillColor=none;gradientColor=none;" parent="1" vertex="1">
          <mxGeometry x="6130" y="2500" width="120" height="40" as="geometry" />
        </mxCell>
        <mxCell id="BHZpziPjv8-AbtUYuXKN-56" value="" style="edgeStyle=orthogonalEdgeStyle;rounded=0;orthogonalLoop=1;jettySize=auto;html=1;" parent="1" source="BHZpziPjv8-AbtUYuXKN-47" target="BHZpziPjv8-AbtUYuXKN-55" edge="1">
          <mxGeometry relative="1" as="geometry" />
        </mxCell>
        <mxCell id="X8t4k1onN2h0A209ZfBv-84" value="" style="edgeStyle=entityRelationEdgeStyle;rounded=0;orthogonalLoop=1;jettySize=auto;html=1;startArrow=none;endArrow=none;segment=10;curved=1;sourcePerimeterSpacing=0;targetPerimeterSpacing=0;" edge="1" parent="1" source="BHZpziPjv8-AbtUYuXKN-68" target="X8t4k1onN2h0A209ZfBv-83">
          <mxGeometry relative="1" as="geometry" />
        </mxCell>
        <mxCell id="X8t4k1onN2h0A209ZfBv-85" value="" style="edgeStyle=entityRelationEdgeStyle;rounded=0;orthogonalLoop=1;jettySize=auto;html=1;startArrow=none;endArrow=none;segment=10;curved=1;sourcePerimeterSpacing=0;targetPerimeterSpacing=0;" edge="1" parent="1" source="BHZpziPjv8-AbtUYuXKN-68" target="X8t4k1onN2h0A209ZfBv-83">
          <mxGeometry relative="1" as="geometry" />
        </mxCell>
        <mxCell id="X8t4k1onN2h0A209ZfBv-87" style="edgeStyle=entityRelationEdgeStyle;rounded=0;orthogonalLoop=1;jettySize=auto;html=1;startArrow=none;endArrow=none;segment=10;curved=1;sourcePerimeterSpacing=0;targetPerimeterSpacing=0;entryX=0;entryY=0.5;entryDx=0;entryDy=0;" edge="1" parent="1" source="BHZpziPjv8-AbtUYuXKN-68" target="X8t4k1onN2h0A209ZfBv-86">
          <mxGeometry relative="1" as="geometry" />
        </mxCell>
        <mxCell id="X8t4k1onN2h0A209ZfBv-99" style="edgeStyle=entityRelationEdgeStyle;rounded=0;orthogonalLoop=1;jettySize=auto;html=1;startArrow=none;endArrow=none;segment=10;curved=1;sourcePerimeterSpacing=0;targetPerimeterSpacing=0;entryX=0;entryY=0.75;entryDx=0;entryDy=0;" edge="1" parent="1" source="BHZpziPjv8-AbtUYuXKN-68" target="X8t4k1onN2h0A209ZfBv-98">
          <mxGeometry relative="1" as="geometry">
            <Array as="points">
              <mxPoint x="6560" y="2190" />
            </Array>
          </mxGeometry>
        </mxCell>
        <mxCell id="BHZpziPjv8-AbtUYuXKN-68" value="Hospital" style="whiteSpace=wrap;html=1;rounded=1;arcSize=50;align=center;verticalAlign=middle;strokeWidth=1;autosize=1;spacing=4;treeFolding=1;treeMoving=1;newEdgeStyle={&quot;edgeStyle&quot;:&quot;entityRelationEdgeStyle&quot;,&quot;startArrow&quot;:&quot;none&quot;,&quot;endArrow&quot;:&quot;none&quot;,&quot;segment&quot;:10,&quot;curved&quot;:1,&quot;sourcePerimeterSpacing&quot;:0,&quot;targetPerimeterSpacing&quot;:0};" parent="1" vertex="1">
          <mxGeometry x="6340" y="2220" width="90" height="30" as="geometry" />
        </mxCell>
        <mxCell id="BHZpziPjv8-AbtUYuXKN-69" value="" style="edgeStyle=entityRelationEdgeStyle;startArrow=none;endArrow=none;segment=10;curved=1;sourcePerimeterSpacing=0;targetPerimeterSpacing=0;rounded=0;exitX=0.5;exitY=0;exitDx=0;exitDy=0;" parent="1" target="BHZpziPjv8-AbtUYuXKN-68" edge="1" source="BHZpziPjv8-AbtUYuXKN-55">
          <mxGeometry relative="1" as="geometry">
            <mxPoint x="6250" y="2560" as="sourcePoint" />
            <Array as="points">
              <mxPoint x="6190" y="2490" />
            </Array>
          </mxGeometry>
        </mxCell>
        <mxCell id="BHZpziPjv8-AbtUYuXKN-71" style="edgeStyle=entityRelationEdgeStyle;rounded=0;orthogonalLoop=1;jettySize=auto;html=1;startArrow=none;endArrow=none;segment=10;curved=1;sourcePerimeterSpacing=0;targetPerimeterSpacing=0;entryX=0.5;entryY=1;entryDx=0;entryDy=0;" parent="1" source="BHZpziPjv8-AbtUYuXKN-70" target="BHZpziPjv8-AbtUYuXKN-55" edge="1">
          <mxGeometry relative="1" as="geometry" />
        </mxCell>
        <mxCell id="BHZpziPjv8-AbtUYuXKN-70" value="Nurse" style="whiteSpace=wrap;html=1;rounded=1;arcSize=50;align=center;verticalAlign=middle;strokeWidth=1;autosize=1;spacing=4;treeFolding=1;treeMoving=1;newEdgeStyle={&quot;edgeStyle&quot;:&quot;entityRelationEdgeStyle&quot;,&quot;startArrow&quot;:&quot;none&quot;,&quot;endArrow&quot;:&quot;none&quot;,&quot;segment&quot;:10,&quot;curved&quot;:1,&quot;sourcePerimeterSpacing&quot;:0,&quot;targetPerimeterSpacing&quot;:0};" parent="1" vertex="1">
          <mxGeometry x="6070" y="2876" width="80" height="30" as="geometry" />
        </mxCell>
        <mxCell id="BHZpziPjv8-AbtUYuXKN-73" style="edgeStyle=entityRelationEdgeStyle;rounded=0;orthogonalLoop=1;jettySize=auto;html=1;startArrow=none;endArrow=none;segment=10;curved=1;sourcePerimeterSpacing=0;targetPerimeterSpacing=0;entryX=1;entryY=0.5;entryDx=0;entryDy=0;" parent="1" source="BHZpziPjv8-AbtUYuXKN-72" target="BHZpziPjv8-AbtUYuXKN-55" edge="1">
          <mxGeometry relative="1" as="geometry" />
        </mxCell>
        <mxCell id="X8t4k1onN2h0A209ZfBv-67" value="" style="edgeStyle=entityRelationEdgeStyle;rounded=0;orthogonalLoop=1;jettySize=auto;html=1;startArrow=none;endArrow=none;segment=10;curved=1;sourcePerimeterSpacing=0;targetPerimeterSpacing=0;" edge="1" parent="1" source="BHZpziPjv8-AbtUYuXKN-72" target="X8t4k1onN2h0A209ZfBv-66">
          <mxGeometry relative="1" as="geometry" />
        </mxCell>
        <mxCell id="X8t4k1onN2h0A209ZfBv-72" value="" style="edgeStyle=entityRelationEdgeStyle;rounded=0;orthogonalLoop=1;jettySize=auto;html=1;startArrow=none;endArrow=none;segment=10;curved=1;sourcePerimeterSpacing=0;targetPerimeterSpacing=0;" edge="1" parent="1" source="BHZpziPjv8-AbtUYuXKN-72" target="X8t4k1onN2h0A209ZfBv-66">
          <mxGeometry relative="1" as="geometry" />
        </mxCell>
        <mxCell id="X8t4k1onN2h0A209ZfBv-74" style="edgeStyle=entityRelationEdgeStyle;rounded=0;orthogonalLoop=1;jettySize=auto;html=1;startArrow=none;endArrow=none;segment=10;curved=1;sourcePerimeterSpacing=0;targetPerimeterSpacing=0;" edge="1" parent="1" source="BHZpziPjv8-AbtUYuXKN-72" target="X8t4k1onN2h0A209ZfBv-73">
          <mxGeometry relative="1" as="geometry" />
        </mxCell>
        <mxCell id="BHZpziPjv8-AbtUYuXKN-72" value="Patient" style="whiteSpace=wrap;html=1;rounded=1;arcSize=50;align=center;verticalAlign=middle;strokeWidth=1;autosize=1;spacing=4;treeFolding=1;treeMoving=1;newEdgeStyle={&quot;edgeStyle&quot;:&quot;entityRelationEdgeStyle&quot;,&quot;startArrow&quot;:&quot;none&quot;,&quot;endArrow&quot;:&quot;none&quot;,&quot;segment&quot;:10,&quot;curved&quot;:1,&quot;sourcePerimeterSpacing&quot;:0,&quot;targetPerimeterSpacing&quot;:0};" parent="1" vertex="1">
          <mxGeometry x="6400" y="2640" width="80" height="30" as="geometry" />
        </mxCell>
        <mxCell id="BHZpziPjv8-AbtUYuXKN-76" style="edgeStyle=entityRelationEdgeStyle;rounded=0;orthogonalLoop=1;jettySize=auto;html=1;startArrow=none;endArrow=none;segment=10;curved=1;sourcePerimeterSpacing=0;targetPerimeterSpacing=0;entryX=0.5;entryY=1;entryDx=0;entryDy=0;" parent="1" source="BHZpziPjv8-AbtUYuXKN-74" target="BHZpziPjv8-AbtUYuXKN-55" edge="1">
          <mxGeometry relative="1" as="geometry" />
        </mxCell>
        <mxCell id="X8t4k1onN2h0A209ZfBv-62" value="" style="edgeStyle=entityRelationEdgeStyle;rounded=0;orthogonalLoop=1;jettySize=auto;html=1;startArrow=none;endArrow=none;segment=10;curved=1;sourcePerimeterSpacing=0;targetPerimeterSpacing=0;" edge="1" parent="1" source="BHZpziPjv8-AbtUYuXKN-74" target="X8t4k1onN2h0A209ZfBv-61">
          <mxGeometry relative="1" as="geometry" />
        </mxCell>
        <mxCell id="X8t4k1onN2h0A209ZfBv-63" value="" style="edgeStyle=entityRelationEdgeStyle;rounded=0;orthogonalLoop=1;jettySize=auto;html=1;startArrow=none;endArrow=none;segment=10;curved=1;sourcePerimeterSpacing=0;targetPerimeterSpacing=0;" edge="1" parent="1" source="BHZpziPjv8-AbtUYuXKN-74" target="X8t4k1onN2h0A209ZfBv-61">
          <mxGeometry relative="1" as="geometry" />
        </mxCell>
        <mxCell id="X8t4k1onN2h0A209ZfBv-64" style="edgeStyle=entityRelationEdgeStyle;rounded=0;orthogonalLoop=1;jettySize=auto;html=1;startArrow=none;endArrow=none;segment=10;curved=1;sourcePerimeterSpacing=0;targetPerimeterSpacing=0;entryX=0;entryY=0.5;entryDx=0;entryDy=0;" edge="1" parent="1" source="BHZpziPjv8-AbtUYuXKN-74" target="X8t4k1onN2h0A209ZfBv-65">
          <mxGeometry relative="1" as="geometry">
            <mxPoint x="6580.000000000001" y="2760" as="targetPoint" />
          </mxGeometry>
        </mxCell>
        <mxCell id="BHZpziPjv8-AbtUYuXKN-74" value="Pharmacy" style="whiteSpace=wrap;html=1;rounded=1;arcSize=50;align=center;verticalAlign=middle;strokeWidth=1;autosize=1;spacing=4;treeFolding=1;treeMoving=1;newEdgeStyle={&quot;edgeStyle&quot;:&quot;entityRelationEdgeStyle&quot;,&quot;startArrow&quot;:&quot;none&quot;,&quot;endArrow&quot;:&quot;none&quot;,&quot;segment&quot;:10,&quot;curved&quot;:1,&quot;sourcePerimeterSpacing&quot;:0,&quot;targetPerimeterSpacing&quot;:0};" parent="1" vertex="1">
          <mxGeometry x="6320" y="2840" width="100" height="30" as="geometry" />
        </mxCell>
        <mxCell id="BHZpziPjv8-AbtUYuXKN-47" value="&lt;div style=&quot;&quot;&gt;&lt;font style=&quot;font-size: 18px;&quot;&gt;Role based Auth&amp;nbsp;&lt;/font&gt;&lt;/div&gt;" style="text;strokeColor=default;fillColor=none;align=center;verticalAlign=middle;spacingLeft=4;spacingRight=4;overflow=hidden;points=[[0,0.5],[1,0.5]];portConstraint=eastwest;rotatable=0;whiteSpace=wrap;html=1;rounded=1;glass=0;" parent="1" vertex="1">
          <mxGeometry x="5920" y="2500" width="160" height="40" as="geometry" />
        </mxCell>
        <mxCell id="X8t4k1onN2h0A209ZfBv-89" value="" style="edgeStyle=entityRelationEdgeStyle;rounded=0;orthogonalLoop=1;jettySize=auto;html=1;startArrow=none;endArrow=none;segment=10;curved=1;sourcePerimeterSpacing=0;targetPerimeterSpacing=0;" edge="1" parent="1" source="X8t4k1onN2h0A209ZfBv-47" target="X8t4k1onN2h0A209ZfBv-88">
          <mxGeometry relative="1" as="geometry" />
        </mxCell>
        <mxCell id="X8t4k1onN2h0A209ZfBv-91" style="edgeStyle=entityRelationEdgeStyle;rounded=0;orthogonalLoop=1;jettySize=auto;html=1;startArrow=none;endArrow=none;segment=10;curved=1;sourcePerimeterSpacing=0;targetPerimeterSpacing=0;entryX=0;entryY=0.5;entryDx=0;entryDy=0;" edge="1" parent="1" source="X8t4k1onN2h0A209ZfBv-47" target="X8t4k1onN2h0A209ZfBv-90">
          <mxGeometry relative="1" as="geometry" />
        </mxCell>
        <mxCell id="X8t4k1onN2h0A209ZfBv-97" style="edgeStyle=entityRelationEdgeStyle;rounded=0;orthogonalLoop=1;jettySize=auto;html=1;startArrow=none;endArrow=none;segment=10;curved=1;sourcePerimeterSpacing=0;targetPerimeterSpacing=0;entryX=0;entryY=0.5;entryDx=0;entryDy=0;" edge="1" parent="1" source="X8t4k1onN2h0A209ZfBv-47" target="X8t4k1onN2h0A209ZfBv-96">
          <mxGeometry relative="1" as="geometry" />
        </mxCell>
        <mxCell id="X8t4k1onN2h0A209ZfBv-47" value="Doctor" style="whiteSpace=wrap;html=1;rounded=1;arcSize=50;align=center;verticalAlign=middle;strokeWidth=1;autosize=1;spacing=4;treeFolding=1;treeMoving=1;newEdgeStyle={&quot;edgeStyle&quot;:&quot;entityRelationEdgeStyle&quot;,&quot;startArrow&quot;:&quot;none&quot;,&quot;endArrow&quot;:&quot;none&quot;,&quot;segment&quot;:10,&quot;curved&quot;:1,&quot;sourcePerimeterSpacing&quot;:0,&quot;targetPerimeterSpacing&quot;:0};" vertex="1" parent="1">
          <mxGeometry x="6400" y="2430" width="80" height="30" as="geometry" />
        </mxCell>
        <mxCell id="X8t4k1onN2h0A209ZfBv-48" value="" style="edgeStyle=entityRelationEdgeStyle;startArrow=none;endArrow=none;segment=10;curved=1;sourcePerimeterSpacing=0;targetPerimeterSpacing=0;rounded=0;exitX=1;exitY=0.5;exitDx=0;exitDy=0;" edge="1" target="X8t4k1onN2h0A209ZfBv-47" parent="1" source="BHZpziPjv8-AbtUYuXKN-55">
          <mxGeometry relative="1" as="geometry">
            <mxPoint x="6230" y="2547.5" as="sourcePoint" />
          </mxGeometry>
        </mxCell>
        <mxCell id="X8t4k1onN2h0A209ZfBv-61" value="Stock Management" style="whiteSpace=wrap;html=1;rounded=1;arcSize=0;align=center;verticalAlign=middle;strokeWidth=1;autosize=1;spacing=4;treeFolding=1;treeMoving=1;newEdgeStyle={&quot;edgeStyle&quot;:&quot;entityRelationEdgeStyle&quot;,&quot;startArrow&quot;:&quot;none&quot;,&quot;endArrow&quot;:&quot;none&quot;,&quot;segment&quot;:10,&quot;curved&quot;:1,&quot;sourcePerimeterSpacing&quot;:0,&quot;targetPerimeterSpacing&quot;:0};" vertex="1" parent="1">
          <mxGeometry x="6510" y="2840" width="165" height="30" as="geometry" />
        </mxCell>
        <mxCell id="X8t4k1onN2h0A209ZfBv-65" value="Prescription Request" style="whiteSpace=wrap;html=1;rounded=1;arcSize=50;align=center;verticalAlign=middle;strokeWidth=1;autosize=1;spacing=4;treeFolding=1;treeMoving=1;newEdgeStyle={&quot;edgeStyle&quot;:&quot;entityRelationEdgeStyle&quot;,&quot;startArrow&quot;:&quot;none&quot;,&quot;endArrow&quot;:&quot;none&quot;,&quot;segment&quot;:10,&quot;curved&quot;:1,&quot;sourcePerimeterSpacing&quot;:0,&quot;targetPerimeterSpacing&quot;:0};" vertex="1" parent="1">
          <mxGeometry x="6510" y="2940" width="160" height="30" as="geometry" />
        </mxCell>
        <mxCell id="X8t4k1onN2h0A209ZfBv-69" value="" style="edgeStyle=entityRelationEdgeStyle;rounded=0;orthogonalLoop=1;jettySize=auto;html=1;startArrow=none;endArrow=none;segment=10;curved=1;sourcePerimeterSpacing=0;targetPerimeterSpacing=0;" edge="1" parent="1" source="X8t4k1onN2h0A209ZfBv-66" target="X8t4k1onN2h0A209ZfBv-68">
          <mxGeometry relative="1" as="geometry" />
        </mxCell>
        <mxCell id="X8t4k1onN2h0A209ZfBv-81" style="edgeStyle=entityRelationEdgeStyle;rounded=0;orthogonalLoop=1;jettySize=auto;html=1;startArrow=none;endArrow=none;segment=10;curved=1;sourcePerimeterSpacing=0;targetPerimeterSpacing=0;entryX=0;entryY=0.5;entryDx=0;entryDy=0;" edge="1" parent="1" source="X8t4k1onN2h0A209ZfBv-66" target="X8t4k1onN2h0A209ZfBv-80">
          <mxGeometry relative="1" as="geometry" />
        </mxCell>
        <mxCell id="X8t4k1onN2h0A209ZfBv-66" value="&lt;div&gt;Video Consultation&lt;br&gt;&lt;/div&gt;" style="whiteSpace=wrap;html=1;rounded=1;arcSize=0;align=center;verticalAlign=middle;strokeWidth=1;autosize=1;spacing=4;treeFolding=1;treeMoving=1;newEdgeStyle={&quot;edgeStyle&quot;:&quot;entityRelationEdgeStyle&quot;,&quot;startArrow&quot;:&quot;none&quot;,&quot;endArrow&quot;:&quot;none&quot;,&quot;segment&quot;:10,&quot;curved&quot;:1,&quot;sourcePerimeterSpacing&quot;:0,&quot;targetPerimeterSpacing&quot;:0};" vertex="1" parent="1">
          <mxGeometry x="6558" y="2630" width="150" height="30" as="geometry" />
        </mxCell>
        <mxCell id="X8t4k1onN2h0A209ZfBv-71" value="" style="edgeStyle=entityRelationEdgeStyle;rounded=0;orthogonalLoop=1;jettySize=auto;html=1;startArrow=none;endArrow=none;segment=10;curved=1;sourcePerimeterSpacing=0;targetPerimeterSpacing=0;" edge="1" parent="1" source="X8t4k1onN2h0A209ZfBv-68" target="X8t4k1onN2h0A209ZfBv-70">
          <mxGeometry relative="1" as="geometry" />
        </mxCell>
        <mxCell id="X8t4k1onN2h0A209ZfBv-68" value="Select type of consultation needed" style="whiteSpace=wrap;html=1;rounded=1;arcSize=50;align=center;verticalAlign=middle;strokeWidth=1;autosize=1;spacing=4;treeFolding=1;treeMoving=1;newEdgeStyle={&quot;edgeStyle&quot;:&quot;entityRelationEdgeStyle&quot;,&quot;startArrow&quot;:&quot;none&quot;,&quot;endArrow&quot;:&quot;none&quot;,&quot;segment&quot;:10,&quot;curved&quot;:1,&quot;sourcePerimeterSpacing&quot;:0,&quot;targetPerimeterSpacing&quot;:0};" vertex="1" parent="1">
          <mxGeometry x="6750" y="2650" width="230" height="30" as="geometry" />
        </mxCell>
        <mxCell id="X8t4k1onN2h0A209ZfBv-79" value="" style="edgeStyle=entityRelationEdgeStyle;rounded=0;orthogonalLoop=1;jettySize=auto;html=1;startArrow=none;endArrow=none;segment=10;curved=1;sourcePerimeterSpacing=0;targetPerimeterSpacing=0;" edge="1" parent="1" source="X8t4k1onN2h0A209ZfBv-70" target="X8t4k1onN2h0A209ZfBv-78">
          <mxGeometry relative="1" as="geometry" />
        </mxCell>
        <mxCell id="X8t4k1onN2h0A209ZfBv-92" value="" style="edgeStyle=entityRelationEdgeStyle;rounded=0;orthogonalLoop=1;jettySize=auto;html=1;startArrow=none;endArrow=none;segment=10;curved=1;sourcePerimeterSpacing=0;targetPerimeterSpacing=0;" edge="1" parent="1" source="X8t4k1onN2h0A209ZfBv-70" target="X8t4k1onN2h0A209ZfBv-78">
          <mxGeometry relative="1" as="geometry" />
        </mxCell>
        <mxCell id="X8t4k1onN2h0A209ZfBv-94" style="edgeStyle=entityRelationEdgeStyle;rounded=0;orthogonalLoop=1;jettySize=auto;html=1;startArrow=none;endArrow=none;segment=10;curved=1;sourcePerimeterSpacing=0;targetPerimeterSpacing=0;entryX=0;entryY=0.5;entryDx=0;entryDy=0;" edge="1" parent="1" source="X8t4k1onN2h0A209ZfBv-70" target="X8t4k1onN2h0A209ZfBv-93">
          <mxGeometry relative="1" as="geometry" />
        </mxCell>
        <mxCell id="X8t4k1onN2h0A209ZfBv-70" value="show list of doctor" style="whiteSpace=wrap;html=1;rounded=1;arcSize=50;align=center;verticalAlign=middle;strokeWidth=1;autosize=1;spacing=4;treeFolding=1;treeMoving=1;newEdgeStyle={&quot;edgeStyle&quot;:&quot;entityRelationEdgeStyle&quot;,&quot;startArrow&quot;:&quot;none&quot;,&quot;endArrow&quot;:&quot;none&quot;,&quot;segment&quot;:10,&quot;curved&quot;:1,&quot;sourcePerimeterSpacing&quot;:0,&quot;targetPerimeterSpacing&quot;:0};" vertex="1" parent="1">
          <mxGeometry x="7020" y="2650" width="140" height="30" as="geometry" />
        </mxCell>
        <mxCell id="X8t4k1onN2h0A209ZfBv-77" value="" style="edgeStyle=entityRelationEdgeStyle;rounded=0;orthogonalLoop=1;jettySize=auto;html=1;startArrow=none;endArrow=none;segment=10;curved=1;sourcePerimeterSpacing=0;targetPerimeterSpacing=0;" edge="1" parent="1" source="X8t4k1onN2h0A209ZfBv-73" target="X8t4k1onN2h0A209ZfBv-76">
          <mxGeometry relative="1" as="geometry" />
        </mxCell>
        <mxCell id="X8t4k1onN2h0A209ZfBv-73" value="Past Records" style="whiteSpace=wrap;html=1;rounded=1;arcSize=0;align=center;verticalAlign=middle;strokeWidth=1;autosize=1;spacing=4;treeFolding=1;treeMoving=1;newEdgeStyle={&quot;edgeStyle&quot;:&quot;entityRelationEdgeStyle&quot;,&quot;startArrow&quot;:&quot;none&quot;,&quot;endArrow&quot;:&quot;none&quot;,&quot;segment&quot;:10,&quot;curved&quot;:1,&quot;sourcePerimeterSpacing&quot;:0,&quot;targetPerimeterSpacing&quot;:0};" vertex="1" parent="1">
          <mxGeometry x="6560.75" y="2710" width="154.5" height="30" as="geometry" />
        </mxCell>
        <mxCell id="X8t4k1onN2h0A209ZfBv-76" value="Details of Record" style="ellipse;whiteSpace=wrap;html=1;rounded=1;arcSize=0;strokeWidth=1;autosize=1;spacing=4;" vertex="1" parent="1">
          <mxGeometry x="6810" y="2700" width="112.75" height="70" as="geometry" />
        </mxCell>
        <mxCell id="X8t4k1onN2h0A209ZfBv-78" value="Request Consultation" style="whiteSpace=wrap;html=1;rounded=1;arcSize=50;align=center;verticalAlign=middle;strokeWidth=1;autosize=1;spacing=4;treeFolding=1;treeMoving=1;newEdgeStyle={&quot;edgeStyle&quot;:&quot;entityRelationEdgeStyle&quot;,&quot;startArrow&quot;:&quot;none&quot;,&quot;endArrow&quot;:&quot;none&quot;,&quot;segment&quot;:10,&quot;curved&quot;:1,&quot;sourcePerimeterSpacing&quot;:0,&quot;targetPerimeterSpacing&quot;:0};" vertex="1" parent="1">
          <mxGeometry x="7200" y="2610" width="160" height="30" as="geometry" />
        </mxCell>
        <mxCell id="X8t4k1onN2h0A209ZfBv-148" value="" style="edgeStyle=entityRelationEdgeStyle;rounded=0;orthogonalLoop=1;jettySize=auto;html=1;startArrow=none;endArrow=none;segment=10;curved=1;sourcePerimeterSpacing=0;targetPerimeterSpacing=0;" edge="1" parent="1" source="X8t4k1onN2h0A209ZfBv-80" target="X8t4k1onN2h0A209ZfBv-147">
          <mxGeometry relative="1" as="geometry" />
        </mxCell>
        <mxCell id="X8t4k1onN2h0A209ZfBv-80" value="Upcoming consultations" style="whiteSpace=wrap;html=1;rounded=1;arcSize=50;align=center;verticalAlign=middle;strokeWidth=1;autosize=1;spacing=4;treeFolding=1;treeMoving=1;newEdgeStyle={&quot;edgeStyle&quot;:&quot;entityRelationEdgeStyle&quot;,&quot;startArrow&quot;:&quot;none&quot;,&quot;endArrow&quot;:&quot;none&quot;,&quot;segment&quot;:10,&quot;curved&quot;:1,&quot;sourcePerimeterSpacing&quot;:0,&quot;targetPerimeterSpacing&quot;:0};" vertex="1" parent="1">
          <mxGeometry x="6752.75" y="2600" width="170" height="30" as="geometry" />
        </mxCell>
        <mxCell id="X8t4k1onN2h0A209ZfBv-83" value="Staff List" style="whiteSpace=wrap;html=1;rounded=1;arcSize=50;align=center;verticalAlign=middle;strokeWidth=1;autosize=1;spacing=4;treeFolding=1;treeMoving=1;newEdgeStyle={&quot;edgeStyle&quot;:&quot;entityRelationEdgeStyle&quot;,&quot;startArrow&quot;:&quot;none&quot;,&quot;endArrow&quot;:&quot;none&quot;,&quot;segment&quot;:10,&quot;curved&quot;:1,&quot;sourcePerimeterSpacing&quot;:0,&quot;targetPerimeterSpacing&quot;:0};" vertex="1" parent="1">
          <mxGeometry x="6570" y="2060" width="90" height="30" as="geometry" />
        </mxCell>
        <mxCell id="X8t4k1onN2h0A209ZfBv-102" value="" style="edgeStyle=entityRelationEdgeStyle;rounded=0;orthogonalLoop=1;jettySize=auto;html=1;startArrow=none;endArrow=none;segment=10;curved=1;sourcePerimeterSpacing=0;targetPerimeterSpacing=0;" edge="1" parent="1" source="X8t4k1onN2h0A209ZfBv-86" target="X8t4k1onN2h0A209ZfBv-101">
          <mxGeometry relative="1" as="geometry" />
        </mxCell>
        <mxCell id="X8t4k1onN2h0A209ZfBv-105" value="" style="edgeStyle=entityRelationEdgeStyle;rounded=0;orthogonalLoop=1;jettySize=auto;html=1;startArrow=none;endArrow=none;segment=10;curved=1;sourcePerimeterSpacing=0;targetPerimeterSpacing=0;" edge="1" parent="1" source="X8t4k1onN2h0A209ZfBv-86" target="X8t4k1onN2h0A209ZfBv-104">
          <mxGeometry relative="1" as="geometry" />
        </mxCell>
        <mxCell id="X8t4k1onN2h0A209ZfBv-106" value="" style="edgeStyle=entityRelationEdgeStyle;rounded=0;orthogonalLoop=1;jettySize=auto;html=1;startArrow=none;endArrow=none;segment=10;curved=1;sourcePerimeterSpacing=0;targetPerimeterSpacing=0;" edge="1" parent="1" source="X8t4k1onN2h0A209ZfBv-86" target="X8t4k1onN2h0A209ZfBv-104">
          <mxGeometry relative="1" as="geometry" />
        </mxCell>
        <mxCell id="X8t4k1onN2h0A209ZfBv-107" value="" style="edgeStyle=entityRelationEdgeStyle;rounded=0;orthogonalLoop=1;jettySize=auto;html=1;startArrow=none;endArrow=none;segment=10;curved=1;sourcePerimeterSpacing=0;targetPerimeterSpacing=0;" edge="1" parent="1" source="X8t4k1onN2h0A209ZfBv-86" target="X8t4k1onN2h0A209ZfBv-104">
          <mxGeometry relative="1" as="geometry" />
        </mxCell>
        <mxCell id="X8t4k1onN2h0A209ZfBv-108" style="edgeStyle=entityRelationEdgeStyle;rounded=0;orthogonalLoop=1;jettySize=auto;html=1;startArrow=none;endArrow=none;segment=10;curved=1;sourcePerimeterSpacing=0;targetPerimeterSpacing=0;entryX=0;entryY=0.5;entryDx=0;entryDy=0;" edge="1" parent="1" source="X8t4k1onN2h0A209ZfBv-86" target="X8t4k1onN2h0A209ZfBv-103">
          <mxGeometry relative="1" as="geometry" />
        </mxCell>
        <mxCell id="X8t4k1onN2h0A209ZfBv-86" value="Records of consultations" style="whiteSpace=wrap;html=1;rounded=1;arcSize=50;align=center;verticalAlign=middle;strokeWidth=1;autosize=1;spacing=4;treeFolding=1;treeMoving=1;newEdgeStyle={&quot;edgeStyle&quot;:&quot;entityRelationEdgeStyle&quot;,&quot;startArrow&quot;:&quot;none&quot;,&quot;endArrow&quot;:&quot;none&quot;,&quot;segment&quot;:10,&quot;curved&quot;:1,&quot;sourcePerimeterSpacing&quot;:0,&quot;targetPerimeterSpacing&quot;:0};" vertex="1" parent="1">
          <mxGeometry x="6600" y="2280" width="180" height="30" as="geometry" />
        </mxCell>
        <mxCell id="X8t4k1onN2h0A209ZfBv-88" value="Upcoming Consultations" style="whiteSpace=wrap;html=1;rounded=1;arcSize=50;align=center;verticalAlign=middle;strokeWidth=1;autosize=1;spacing=4;treeFolding=1;treeMoving=1;newEdgeStyle={&quot;edgeStyle&quot;:&quot;entityRelationEdgeStyle&quot;,&quot;startArrow&quot;:&quot;none&quot;,&quot;endArrow&quot;:&quot;none&quot;,&quot;segment&quot;:10,&quot;curved&quot;:1,&quot;sourcePerimeterSpacing&quot;:0,&quot;targetPerimeterSpacing&quot;:0};" vertex="1" parent="1">
          <mxGeometry x="6558" y="2360" width="170" height="30" as="geometry" />
        </mxCell>
        <mxCell id="X8t4k1onN2h0A209ZfBv-90" value="Consultation Request" style="whiteSpace=wrap;html=1;rounded=1;arcSize=50;align=center;verticalAlign=middle;strokeWidth=1;autosize=1;spacing=4;treeFolding=1;treeMoving=1;newEdgeStyle={&quot;edgeStyle&quot;:&quot;entityRelationEdgeStyle&quot;,&quot;startArrow&quot;:&quot;none&quot;,&quot;endArrow&quot;:&quot;none&quot;,&quot;segment&quot;:10,&quot;curved&quot;:1,&quot;sourcePerimeterSpacing&quot;:0,&quot;targetPerimeterSpacing&quot;:0};" vertex="1" parent="1">
          <mxGeometry x="6558" y="2420" width="160" height="30" as="geometry" />
        </mxCell>
        <mxCell id="X8t4k1onN2h0A209ZfBv-93" value="Send Message" style="whiteSpace=wrap;html=1;rounded=1;arcSize=50;align=center;verticalAlign=middle;strokeWidth=1;autosize=1;spacing=4;treeFolding=1;treeMoving=1;newEdgeStyle={&quot;edgeStyle&quot;:&quot;entityRelationEdgeStyle&quot;,&quot;startArrow&quot;:&quot;none&quot;,&quot;endArrow&quot;:&quot;none&quot;,&quot;segment&quot;:10,&quot;curved&quot;:1,&quot;sourcePerimeterSpacing&quot;:0,&quot;targetPerimeterSpacing&quot;:0};" vertex="1" parent="1">
          <mxGeometry x="7200" y="2670" width="120" height="30" as="geometry" />
        </mxCell>
        <mxCell id="X8t4k1onN2h0A209ZfBv-96" value="Patient Records" style="whiteSpace=wrap;html=1;rounded=1;arcSize=50;align=center;verticalAlign=middle;strokeWidth=1;autosize=1;spacing=4;treeFolding=1;treeMoving=1;newEdgeStyle={&quot;edgeStyle&quot;:&quot;entityRelationEdgeStyle&quot;,&quot;startArrow&quot;:&quot;none&quot;,&quot;endArrow&quot;:&quot;none&quot;,&quot;segment&quot;:10,&quot;curved&quot;:1,&quot;sourcePerimeterSpacing&quot;:0,&quot;targetPerimeterSpacing&quot;:0};" vertex="1" parent="1">
          <mxGeometry x="6558" y="2470" width="130" height="30" as="geometry" />
        </mxCell>
        <mxCell id="X8t4k1onN2h0A209ZfBv-114" value="" style="edgeStyle=entityRelationEdgeStyle;rounded=0;orthogonalLoop=1;jettySize=auto;html=1;startArrow=none;endArrow=none;segment=10;curved=1;sourcePerimeterSpacing=0;targetPerimeterSpacing=0;" edge="1" parent="1" source="X8t4k1onN2h0A209ZfBv-98" target="X8t4k1onN2h0A209ZfBv-112">
          <mxGeometry relative="1" as="geometry" />
        </mxCell>
        <mxCell id="X8t4k1onN2h0A209ZfBv-116" value="" style="edgeStyle=entityRelationEdgeStyle;rounded=0;orthogonalLoop=1;jettySize=auto;html=1;startArrow=none;endArrow=none;segment=10;curved=1;sourcePerimeterSpacing=0;targetPerimeterSpacing=0;" edge="1" parent="1" source="X8t4k1onN2h0A209ZfBv-98" target="X8t4k1onN2h0A209ZfBv-115">
          <mxGeometry relative="1" as="geometry" />
        </mxCell>
        <mxCell id="X8t4k1onN2h0A209ZfBv-98" value="Beds" style="whiteSpace=wrap;html=1;rounded=1;arcSize=50;align=center;verticalAlign=middle;strokeWidth=1;autosize=1;spacing=4;treeFolding=1;treeMoving=1;newEdgeStyle={&quot;edgeStyle&quot;:&quot;entityRelationEdgeStyle&quot;,&quot;startArrow&quot;:&quot;none&quot;,&quot;endArrow&quot;:&quot;none&quot;,&quot;segment&quot;:10,&quot;curved&quot;:1,&quot;sourcePerimeterSpacing&quot;:0,&quot;targetPerimeterSpacing&quot;:0};" vertex="1" parent="1">
          <mxGeometry x="6580" y="2170" width="70" height="30" as="geometry" />
        </mxCell>
        <mxCell id="X8t4k1onN2h0A209ZfBv-101" value="Ongoing&lt;span style=&quot;caret-color: rgba(0, 0, 0, 0); color: rgba(0, 0, 0, 0); font-family: monospace; font-size: 0px; text-align: start; white-space: nowrap;&quot;&gt;%3CmxGraphModel%3E%3Croot%3E%3CmxCell%20id%3D%220%22%2F%3E%3CmxCell%20id%3D%221%22%20parent%3D%220%22%2F%3E%3CmxCell%20id%3D%222%22%20value%3D%22Staff%20List%22%20style%3D%22whiteSpace%3Dwrap%3Bhtml%3D1%3Brounded%3D1%3BarcSize%3D50%3Balign%3Dcenter%3BverticalAlign%3Dmiddle%3BstrokeWidth%3D1%3Bautosize%3D1%3Bspacing%3D4%3BtreeFolding%3D1%3BtreeMoving%3D1%3BnewEdgeStyle%3D%7B%26quot%3BedgeStyle%26quot%3B%3A%26quot%3BentityRelationEdgeStyle%26quot%3B%2C%26quot%3BstartArrow%26quot%3B%3A%26quot%3Bnone%26quot%3B%2C%26quot%3BendArrow%26quot%3B%3A%26quot%3Bnone%26quot%3B%2C%26quot%3Bsegment%26quot%3B%3A10%2C%26quot%3Bcurved%26quot%3B%3A1%2C%26quot%3BsourcePerimeterSpacing%26quot%3B%3A0%2C%26quot%3BtargetPerimeterSpacing%26quot%3B%3A0%7D%3B%22%20vertex%3D%221%22%20parent%3D%221%22%3E%3CmxGeometry%20x%3D%226558%22%20y%3D%222110%22%20width%3D%2290%22%20height%3D%2230%22%20as%3D%22geometry%22%2F%3E%3C%2FmxCell%3E%3C%2Froot%3E%3C%2FmxGraphModel%3E&lt;/span&gt;" style="whiteSpace=wrap;html=1;rounded=1;arcSize=50;align=center;verticalAlign=middle;strokeWidth=1;autosize=1;spacing=4;treeFolding=1;treeMoving=1;newEdgeStyle={&quot;edgeStyle&quot;:&quot;entityRelationEdgeStyle&quot;,&quot;startArrow&quot;:&quot;none&quot;,&quot;endArrow&quot;:&quot;none&quot;,&quot;segment&quot;:10,&quot;curved&quot;:1,&quot;sourcePerimeterSpacing&quot;:0,&quot;targetPerimeterSpacing&quot;:0};" vertex="1" parent="1">
          <mxGeometry x="6870" y="2260" width="90" height="30" as="geometry" />
        </mxCell>
        <mxCell id="X8t4k1onN2h0A209ZfBv-103" value="upcoming" style="whiteSpace=wrap;html=1;rounded=1;arcSize=50;align=center;verticalAlign=middle;strokeWidth=1;autosize=1;spacing=4;treeFolding=1;treeMoving=1;newEdgeStyle={&quot;edgeStyle&quot;:&quot;entityRelationEdgeStyle&quot;,&quot;startArrow&quot;:&quot;none&quot;,&quot;endArrow&quot;:&quot;none&quot;,&quot;segment&quot;:10,&quot;curved&quot;:1,&quot;sourcePerimeterSpacing&quot;:0,&quot;targetPerimeterSpacing&quot;:0};" vertex="1" parent="1">
          <mxGeometry x="6870" y="2312" width="100" height="30" as="geometry" />
        </mxCell>
        <mxCell id="X8t4k1onN2h0A209ZfBv-104" value="completed" style="whiteSpace=wrap;html=1;rounded=1;arcSize=50;align=center;verticalAlign=middle;strokeWidth=1;autosize=1;spacing=4;treeFolding=1;treeMoving=1;newEdgeStyle={&quot;edgeStyle&quot;:&quot;entityRelationEdgeStyle&quot;,&quot;startArrow&quot;:&quot;none&quot;,&quot;endArrow&quot;:&quot;none&quot;,&quot;segment&quot;:10,&quot;curved&quot;:1,&quot;sourcePerimeterSpacing&quot;:0,&quot;targetPerimeterSpacing&quot;:0};" vertex="1" parent="1">
          <mxGeometry x="6870" y="2370" width="100" height="30" as="geometry" />
        </mxCell>
        <mxCell id="X8t4k1onN2h0A209ZfBv-112" value="past records" style="whiteSpace=wrap;html=1;rounded=1;arcSize=50;align=center;verticalAlign=middle;strokeWidth=1;autosize=1;spacing=4;treeFolding=1;treeMoving=1;newEdgeStyle={&quot;edgeStyle&quot;:&quot;entityRelationEdgeStyle&quot;,&quot;startArrow&quot;:&quot;none&quot;,&quot;endArrow&quot;:&quot;none&quot;,&quot;segment&quot;:10,&quot;curved&quot;:1,&quot;sourcePerimeterSpacing&quot;:0,&quot;targetPerimeterSpacing&quot;:0};" vertex="1" parent="1">
          <mxGeometry x="6728" y="2170" width="110" height="30" as="geometry" />
        </mxCell>
        <mxCell id="X8t4k1onN2h0A209ZfBv-115" value="current status" style="whiteSpace=wrap;html=1;rounded=1;arcSize=50;align=center;verticalAlign=middle;strokeWidth=1;autosize=1;spacing=4;treeFolding=1;treeMoving=1;newEdgeStyle={&quot;edgeStyle&quot;:&quot;entityRelationEdgeStyle&quot;,&quot;startArrow&quot;:&quot;none&quot;,&quot;endArrow&quot;:&quot;none&quot;,&quot;segment&quot;:10,&quot;curved&quot;:1,&quot;sourcePerimeterSpacing&quot;:0,&quot;targetPerimeterSpacing&quot;:0};" vertex="1" parent="1">
          <mxGeometry x="6728" y="2100" width="120" height="30" as="geometry" />
        </mxCell>
        <mxCell id="X8t4k1onN2h0A209ZfBv-120" value="&lt;font style=&quot;font-size: 18px;&quot;&gt;Home page&lt;/font&gt;" style="whiteSpace=wrap;html=1;" vertex="1" parent="1">
          <mxGeometry x="5450" y="2495" width="125" height="50" as="geometry" />
        </mxCell>
        <mxCell id="BHZpziPjv8-AbtUYuXKN-42" value="Real - time updates" style="text;strokeColor=default;fillColor=none;align=center;verticalAlign=middle;spacingLeft=4;spacingRight=4;overflow=hidden;points=[[0,0.5],[1,0.5]];portConstraint=eastwest;rotatable=0;whiteSpace=wrap;html=1;" parent="1" vertex="1">
          <mxGeometry x="5664.5" y="2770" width="140" height="30" as="geometry" />
        </mxCell>
        <mxCell id="BHZpziPjv8-AbtUYuXKN-44" value="Video Calls" style="text;strokeColor=default;fillColor=none;align=center;verticalAlign=middle;spacingLeft=4;spacingRight=4;overflow=hidden;points=[[0,0.5],[1,0.5]];portConstraint=eastwest;rotatable=0;whiteSpace=wrap;html=1;" parent="1" vertex="1">
          <mxGeometry x="5664.5" y="2840" width="140" height="30" as="geometry" />
        </mxCell>
        <mxCell id="BHZpziPjv8-AbtUYuXKN-43" value="Ai Powered Symptom checker" style="text;strokeColor=default;fillColor=none;align=center;verticalAlign=middle;spacingLeft=4;spacingRight=4;overflow=hidden;points=[[0,0.5],[1,0.5]];portConstraint=eastwest;rotatable=0;whiteSpace=wrap;html=1;" parent="1" vertex="1">
          <mxGeometry x="5664.5" y="2920" width="140" height="36" as="geometry" />
        </mxCell>
        <mxCell id="BHZpziPjv8-AbtUYuXKN-54" value="PWA" style="text;strokeColor=default;fillColor=none;align=center;verticalAlign=middle;spacingLeft=4;spacingRight=4;overflow=hidden;points=[[0,0.5],[1,0.5]];portConstraint=eastwest;rotatable=0;whiteSpace=wrap;html=1;" parent="1" vertex="1">
          <mxGeometry x="5664.5" y="3000" width="140" height="40" as="geometry" />
        </mxCell>
        <mxCell id="BHZpziPjv8-AbtUYuXKN-46" value="Scalibility" style="text;strokeColor=default;fillColor=none;align=center;verticalAlign=middle;spacingLeft=4;spacingRight=4;overflow=hidden;points=[[0,0.5],[1,0.5]];portConstraint=eastwest;rotatable=0;whiteSpace=wrap;html=1;" parent="1" vertex="1">
          <mxGeometry x="5667.5" y="3070" width="140" height="30" as="geometry" />
        </mxCell>
        <mxCell id="X8t4k1onN2h0A209ZfBv-126" value="&lt;font style=&quot;font-size: 18px;&quot;&gt;Symptom Checker&lt;/font&gt;" style="whiteSpace=wrap;html=1;" vertex="1" parent="1">
          <mxGeometry x="5682.5" y="2360" width="125" height="50" as="geometry" />
        </mxCell>
        <mxCell id="X8t4k1onN2h0A209ZfBv-152" value="" style="edgeStyle=orthogonalEdgeStyle;rounded=0;orthogonalLoop=1;jettySize=auto;html=1;" edge="1" parent="1" source="X8t4k1onN2h0A209ZfBv-147" target="X8t4k1onN2h0A209ZfBv-151">
          <mxGeometry relative="1" as="geometry" />
        </mxCell>
        <mxCell id="X8t4k1onN2h0A209ZfBv-147" value="start consultation" style="whiteSpace=wrap;html=1;rounded=1;arcSize=50;strokeWidth=1;autosize=1;spacing=4;" vertex="1" parent="1">
          <mxGeometry x="6970" y="2540" width="120" height="30" as="geometry" />
        </mxCell>
        <mxCell id="X8t4k1onN2h0A209ZfBv-151" value="video call using zoom SDK" style="whiteSpace=wrap;html=1;rounded=1;arcSize=50;strokeWidth=1;autosize=1;spacing=4;" vertex="1" parent="1">
          <mxGeometry x="7145" y="2540" width="170" height="30" as="geometry" />
        </mxCell>
        <mxCell id="X8t4k1onN2h0A209ZfBv-155" style="edgeStyle=entityRelationEdgeStyle;rounded=0;orthogonalLoop=1;jettySize=auto;html=1;startArrow=none;endArrow=none;segment=10;curved=1;sourcePerimeterSpacing=0;targetPerimeterSpacing=0;exitX=0.5;exitY=1;exitDx=0;exitDy=0;" edge="1" parent="1" source="X8t4k1onN2h0A209ZfBv-65" target="X8t4k1onN2h0A209ZfBv-65">
          <mxGeometry relative="1" as="geometry" />
        </mxCell>
        <mxCell id="X8t4k1onN2h0A209ZfBv-156" value="" style="whiteSpace=wrap;html=1;aspect=fixed;" vertex="1" parent="1">
          <mxGeometry x="3110" y="3220" width="1090" height="1090" as="geometry" />
        </mxCell>
        <mxCell id="X8t4k1onN2h0A209ZfBv-160" value="" style="edgeStyle=orthogonalEdgeStyle;rounded=0;orthogonalLoop=1;jettySize=auto;html=1;" edge="1" parent="1" source="X8t4k1onN2h0A209ZfBv-157" target="X8t4k1onN2h0A209ZfBv-159">
          <mxGeometry relative="1" as="geometry" />
        </mxCell>
        <mxCell id="X8t4k1onN2h0A209ZfBv-157" value="&lt;font style=&quot;font-size: 24px;&quot;&gt;Database Design&lt;/font&gt;" style="rounded=1;whiteSpace=wrap;html=1;fillColor=#a20025;strokeColor=#6F0000;fontColor=#ffffff;" vertex="1" parent="1">
          <mxGeometry x="3185" y="3370" width="165" height="60" as="geometry" />
        </mxCell>
        <mxCell id="X8t4k1onN2h0A209ZfBv-158" value="&lt;font style=&quot;font-size: 24px;&quot;&gt;LLD&lt;/font&gt;" style="text;html=1;align=center;verticalAlign=middle;whiteSpace=wrap;rounded=0;strokeColor=#006EAF;fillColor=#1ba1e2;fontColor=#ffffff;" vertex="1" parent="1">
          <mxGeometry x="3570" y="3220" width="110" height="50" as="geometry" />
        </mxCell>
        <mxCell id="X8t4k1onN2h0A209ZfBv-159" value="&lt;font style=&quot;font-size: 18px;&quot;&gt;Managed PostgreSQL on Supabase&lt;/font&gt;" style="whiteSpace=wrap;html=1;rounded=1;" vertex="1" parent="1">
          <mxGeometry x="3530" y="3420" width="215" height="60" as="geometry" />
        </mxCell>
        <mxCell id="X8t4k1onN2h0A209ZfBv-203" value="" style="edgeStyle=orthogonalEdgeStyle;rounded=0;orthogonalLoop=1;jettySize=auto;html=1;" edge="1" parent="1" source="X8t4k1onN2h0A209ZfBv-162" target="X8t4k1onN2h0A209ZfBv-201">
          <mxGeometry relative="1" as="geometry" />
        </mxCell>
        <mxCell id="X8t4k1onN2h0A209ZfBv-162" value="&lt;font style=&quot;font-size: 24px;&quot;&gt;Backend Architechture&lt;/font&gt;" style="rounded=1;whiteSpace=wrap;html=1;fillColor=#a20025;strokeColor=#6F0000;fontColor=#ffffff;" vertex="1" parent="1">
          <mxGeometry x="3180" y="3590" width="165" height="60" as="geometry" />
        </mxCell>
        <mxCell id="X8t4k1onN2h0A209ZfBv-169" value="" style="edgeStyle=orthogonalEdgeStyle;rounded=0;orthogonalLoop=1;jettySize=auto;html=1;entryX=0;entryY=0.75;entryDx=0;entryDy=0;" edge="1" parent="1" source="X8t4k1onN2h0A209ZfBv-163" target="X8t4k1onN2h0A209ZfBv-168">
          <mxGeometry relative="1" as="geometry" />
        </mxCell>
        <mxCell id="X8t4k1onN2h0A209ZfBv-174" value="Passes Params" style="edgeLabel;html=1;align=center;verticalAlign=middle;resizable=0;points=[];" vertex="1" connectable="0" parent="X8t4k1onN2h0A209ZfBv-169">
          <mxGeometry x="-0.2388" y="2" relative="1" as="geometry">
            <mxPoint x="6" y="1" as="offset" />
          </mxGeometry>
        </mxCell>
        <mxCell id="X8t4k1onN2h0A209ZfBv-163" value="controllers" style="whiteSpace=wrap;html=1;strokeColor=default;rounded=1;" vertex="1" parent="1">
          <mxGeometry x="3410" y="3700" width="80" height="30" as="geometry" />
        </mxCell>
        <mxCell id="X8t4k1onN2h0A209ZfBv-196" style="edgeStyle=orthogonalEdgeStyle;rounded=0;orthogonalLoop=1;jettySize=auto;html=1;entryX=0.5;entryY=0;entryDx=0;entryDy=0;" edge="1" parent="1" source="X8t4k1onN2h0A209ZfBv-165" target="X8t4k1onN2h0A209ZfBv-194">
          <mxGeometry relative="1" as="geometry" />
        </mxCell>
        <mxCell id="X8t4k1onN2h0A209ZfBv-165" value="&lt;font style=&quot;font-size: 24px;&quot;&gt;External Integrations&lt;/font&gt;" style="rounded=1;whiteSpace=wrap;html=1;fillColor=#a20025;strokeColor=#6F0000;fontColor=#ffffff;" vertex="1" parent="1">
          <mxGeometry x="3180" y="4020" width="165" height="60" as="geometry" />
        </mxCell>
        <mxCell id="X8t4k1onN2h0A209ZfBv-171" value="" style="edgeStyle=orthogonalEdgeStyle;rounded=0;orthogonalLoop=1;jettySize=auto;html=1;" edge="1" parent="1" source="X8t4k1onN2h0A209ZfBv-168" target="X8t4k1onN2h0A209ZfBv-170">
          <mxGeometry relative="1" as="geometry" />
        </mxCell>
        <mxCell id="X8t4k1onN2h0A209ZfBv-175" value="Database" style="edgeLabel;html=1;align=center;verticalAlign=middle;resizable=0;points=[];" vertex="1" connectable="0" parent="X8t4k1onN2h0A209ZfBv-171">
          <mxGeometry x="-0.0664" y="1" relative="1" as="geometry">
            <mxPoint as="offset" />
          </mxGeometry>
        </mxCell>
        <mxCell id="X8t4k1onN2h0A209ZfBv-177" value="" style="edgeStyle=orthogonalEdgeStyle;rounded=0;orthogonalLoop=1;jettySize=auto;html=1;exitX=0.5;exitY=1;exitDx=0;exitDy=0;" edge="1" parent="1" source="X8t4k1onN2h0A209ZfBv-168" target="X8t4k1onN2h0A209ZfBv-176">
          <mxGeometry relative="1" as="geometry" />
        </mxCell>
        <mxCell id="X8t4k1onN2h0A209ZfBv-178" value="no database" style="edgeLabel;html=1;align=center;verticalAlign=middle;resizable=0;points=[];" vertex="1" connectable="0" parent="X8t4k1onN2h0A209ZfBv-177">
          <mxGeometry x="-0.1544" y="1" relative="1" as="geometry">
            <mxPoint as="offset" />
          </mxGeometry>
        </mxCell>
        <mxCell id="X8t4k1onN2h0A209ZfBv-168" value="Service" style="whiteSpace=wrap;html=1;strokeColor=default;rounded=1;" vertex="1" parent="1">
          <mxGeometry x="3670" y="3690" width="80" height="30" as="geometry" />
        </mxCell>
        <mxCell id="X8t4k1onN2h0A209ZfBv-184" value="" style="edgeStyle=orthogonalEdgeStyle;rounded=0;orthogonalLoop=1;jettySize=auto;html=1;" edge="1" parent="1" source="X8t4k1onN2h0A209ZfBv-170" target="X8t4k1onN2h0A209ZfBv-183">
          <mxGeometry relative="1" as="geometry" />
        </mxCell>
        <mxCell id="X8t4k1onN2h0A209ZfBv-186" value="ORM" style="edgeLabel;html=1;align=center;verticalAlign=middle;resizable=0;points=[];" vertex="1" connectable="0" parent="X8t4k1onN2h0A209ZfBv-184">
          <mxGeometry x="0.0154" relative="1" as="geometry">
            <mxPoint as="offset" />
          </mxGeometry>
        </mxCell>
        <mxCell id="X8t4k1onN2h0A209ZfBv-170" value="repository" style="whiteSpace=wrap;html=1;strokeColor=default;rounded=1;" vertex="1" parent="1">
          <mxGeometry x="3910" y="3690" width="80" height="30" as="geometry" />
        </mxCell>
        <mxCell id="X8t4k1onN2h0A209ZfBv-179" style="edgeStyle=orthogonalEdgeStyle;rounded=0;orthogonalLoop=1;jettySize=auto;html=1;entryX=0.5;entryY=1;entryDx=0;entryDy=0;" edge="1" parent="1" source="X8t4k1onN2h0A209ZfBv-176" target="X8t4k1onN2h0A209ZfBv-163">
          <mxGeometry relative="1" as="geometry" />
        </mxCell>
        <mxCell id="X8t4k1onN2h0A209ZfBv-180" value="Returns Result" style="edgeLabel;html=1;align=center;verticalAlign=middle;resizable=0;points=[];" vertex="1" connectable="0" parent="X8t4k1onN2h0A209ZfBv-179">
          <mxGeometry x="0.1913" y="1" relative="1" as="geometry">
            <mxPoint x="-12" y="-26" as="offset" />
          </mxGeometry>
        </mxCell>
        <mxCell id="X8t4k1onN2h0A209ZfBv-176" value="Runs some business logic" style="whiteSpace=wrap;html=1;rounded=1;" vertex="1" parent="1">
          <mxGeometry x="3540" y="3830.75" width="100" height="37.5" as="geometry" />
        </mxCell>
        <mxCell id="X8t4k1onN2h0A209ZfBv-185" value="" style="edgeStyle=orthogonalEdgeStyle;rounded=0;orthogonalLoop=1;jettySize=auto;html=1;" edge="1" parent="1" source="X8t4k1onN2h0A209ZfBv-183" target="X8t4k1onN2h0A209ZfBv-176">
          <mxGeometry relative="1" as="geometry" />
        </mxCell>
        <mxCell id="X8t4k1onN2h0A209ZfBv-187" value="Fetched data" style="edgeLabel;html=1;align=center;verticalAlign=middle;resizable=0;points=[];" vertex="1" connectable="0" parent="X8t4k1onN2h0A209ZfBv-185">
          <mxGeometry x="0.0138" y="1" relative="1" as="geometry">
            <mxPoint x="2" y="-3" as="offset" />
          </mxGeometry>
        </mxCell>
        <mxCell id="X8t4k1onN2h0A209ZfBv-183" value="queries database" style="whiteSpace=wrap;html=1;strokeColor=default;rounded=1;" vertex="1" parent="1">
          <mxGeometry x="3910" y="3834.5" width="80" height="30" as="geometry" />
        </mxCell>
        <mxCell id="X8t4k1onN2h0A209ZfBv-190" value="DB Acces" style="whiteSpace=wrap;html=1;rounded=1;arcSize=50;align=center;verticalAlign=middle;strokeWidth=1;autosize=1;spacing=4;treeFolding=1;treeMoving=1;newEdgeStyle={&quot;edgeStyle&quot;:&quot;entityRelationEdgeStyle&quot;,&quot;startArrow&quot;:&quot;none&quot;,&quot;endArrow&quot;:&quot;none&quot;,&quot;segment&quot;:10,&quot;curved&quot;:1,&quot;sourcePerimeterSpacing&quot;:0,&quot;targetPerimeterSpacing&quot;:0};" vertex="1" parent="1">
          <mxGeometry x="3900" y="3940" width="100" height="30" as="geometry" />
        </mxCell>
        <mxCell id="X8t4k1onN2h0A209ZfBv-191" value="" style="edgeStyle=entityRelationEdgeStyle;startArrow=none;endArrow=none;segment=10;curved=1;sourcePerimeterSpacing=0;targetPerimeterSpacing=0;rounded=0;" edge="1" target="X8t4k1onN2h0A209ZfBv-190" parent="1" source="X8t4k1onN2h0A209ZfBv-183">
          <mxGeometry relative="1" as="geometry">
            <mxPoint x="3900" y="3962" as="sourcePoint" />
          </mxGeometry>
        </mxCell>
        <mxCell id="X8t4k1onN2h0A209ZfBv-193" style="edgeStyle=entityRelationEdgeStyle;rounded=0;orthogonalLoop=1;jettySize=auto;html=1;startArrow=none;endArrow=none;segment=10;curved=1;sourcePerimeterSpacing=0;targetPerimeterSpacing=0;" edge="1" parent="1" source="X8t4k1onN2h0A209ZfBv-192" target="X8t4k1onN2h0A209ZfBv-170">
          <mxGeometry relative="1" as="geometry" />
        </mxCell>
        <mxCell id="X8t4k1onN2h0A209ZfBv-192" value="ORM runs here" style="whiteSpace=wrap;html=1;rounded=1;arcSize=50;align=center;verticalAlign=middle;strokeWidth=1;autosize=1;spacing=4;treeFolding=1;treeMoving=1;newEdgeStyle={&quot;edgeStyle&quot;:&quot;entityRelationEdgeStyle&quot;,&quot;startArrow&quot;:&quot;none&quot;,&quot;endArrow&quot;:&quot;none&quot;,&quot;segment&quot;:10,&quot;curved&quot;:1,&quot;sourcePerimeterSpacing&quot;:0,&quot;targetPerimeterSpacing&quot;:0};" vertex="1" parent="1">
          <mxGeometry x="3885" y="3600" width="130" height="30" as="geometry" />
        </mxCell>
        <mxCell id="X8t4k1onN2h0A209ZfBv-198" value="" style="edgeStyle=orthogonalEdgeStyle;rounded=0;orthogonalLoop=1;jettySize=auto;html=1;" edge="1" parent="1" source="X8t4k1onN2h0A209ZfBv-194" target="X8t4k1onN2h0A209ZfBv-197">
          <mxGeometry relative="1" as="geometry" />
        </mxCell>
        <mxCell id="X8t4k1onN2h0A209ZfBv-194" value="Video Call" style="whiteSpace=wrap;html=1;strokeColor=default;rounded=1;" vertex="1" parent="1">
          <mxGeometry x="3490" y="4035" width="80" height="30" as="geometry" />
        </mxCell>
        <mxCell id="X8t4k1onN2h0A209ZfBv-197" value="Zoom SDK" style="whiteSpace=wrap;html=1;strokeColor=default;rounded=1;" vertex="1" parent="1">
          <mxGeometry x="3490" y="4130" width="80" height="30" as="geometry" />
        </mxCell>
        <mxCell id="X8t4k1onN2h0A209ZfBv-202" value="" style="edgeStyle=orthogonalEdgeStyle;rounded=0;orthogonalLoop=1;jettySize=auto;html=1;" edge="1" parent="1" source="X8t4k1onN2h0A209ZfBv-201" target="X8t4k1onN2h0A209ZfBv-163">
          <mxGeometry relative="1" as="geometry" />
        </mxCell>
        <mxCell id="X8t4k1onN2h0A209ZfBv-201" value="Routes" style="whiteSpace=wrap;html=1;strokeColor=default;rounded=1;" vertex="1" parent="1">
          <mxGeometry x="3255" y="3700" width="80" height="30" as="geometry" />
        </mxCell>
      </root>
    </mxGraphModel>
  </diagram>
</mxfile>
